<svg width="24" height="24" viewBox="0 0 24 24" fill="none" xmlns="http://www.w3.org/2000/svg">
<path d="M15.5 1.5C17.157 1.5 18.5 2.843 18.5 4.5V11.5" stroke="black" stroke-linecap="round" stroke-linejoin="round"/>
<path d="M11.5 18.5H3.5C1.843 18.5 0.5 17.157 0.5 15.5V4.5C0.5 2.843 1.843 1.5 3.5 1.5" stroke="black" stroke-linecap="round" stroke-linejoin="round"/>
<path d="M4.5 9.5V9.5C4.5 8.395 5.395 7.5 6.5 7.5C7.605 7.5 8.5 8.395 8.5 9.5C8.5 10.605 7.605 11.5 6.5 11.5H5.5H6.5C7.605 11.5 8.5 12.395 8.5 13.5C8.5 14.605 7.605 15.5 6.5 15.5C5.395 15.5 4.5 14.605 4.5 13.5" stroke="black" stroke-linecap="round" stroke-linejoin="round"/>
<path d="M10.5 9.5L12.5 7.5V15.5" stroke="black" stroke-linecap="round" stroke-linejoin="round"/>
<path fill-rule="evenodd" clip-rule="evenodd" d="M13.5 18.5C13.5 15.739 15.739 13.5 18.5 13.5C21.261 13.5 23.5 15.739 23.5 18.5C23.5 21.261 21.261 23.5 18.5 23.5C15.739 23.5 13.5 21.261 13.5 18.5V18.5Z" stroke="black" stroke-linecap="round" stroke-linejoin="round"/>
<path d="M21.5 12L23.5 13.5" stroke="black" stroke-linecap="round" stroke-linejoin="round"/>
<path d="M15.5 12L13.5 13.5" stroke="black" stroke-linecap="round" stroke-linejoin="round"/>
<path d="M18.5 15.5V18.5L20.5 20.5" stroke="black" stroke-linecap="round" stroke-linejoin="round"/>
<path d="M7.5 1.5H11.5" stroke="black" stroke-linecap="round" stroke-linejoin="round"/>
<path d="M0.5 4.5H18.5" stroke="black" stroke-linecap="round" stroke-linejoin="round"/>
<path d="M5.5 0.5V2.5" stroke="black" stroke-linecap="round" stroke-linejoin="round"/>
<path d="M13.5 0.5V2.5" stroke="black" stroke-linecap="round" stroke-linejoin="round"/>
</svg>
