<svg width="18" height="18" viewBox="0 0 18 18" fill="none"
    xmlns="http://www.w3.org/2000/svg">
    <path class="background" fill-rule="evenodd" clip-rule="evenodd" d="M2.38419e-07 9C2.38419e-07 4.02935 4.02917 2.38419e-07 8.99959 2.38419e-07C13.9708 2.38419e-07 18 4.02935 18 9C18 13.9706 13.9708 18 8.99959 18C4.02917 18 2.38419e-07 13.9706 2.38419e-07 9Z" fill="white"/>
    <path class="arrow" fill-rule="evenodd" clip-rule="evenodd" d="M6.785 14.4883C6.46548 14.1688 6.46548 13.6507 6.785 13.3312L11.1156 9.00066L6.785 4.67011C6.46548 4.35059 6.46548 3.83255 6.785 3.51303C7.10452 3.19351 7.62257 3.19351 7.94209 3.51303L12.8512 8.42212C13.1707 8.74164 13.1707 9.25968 12.8512 9.5792L7.94209 14.4883C7.62257 14.8078 7.10452 14.8078 6.785 14.4883Z" fill="#04293E"/>
</svg>
