<svg width="24" height="22" viewBox="0 0 24 22" fill="none" xmlns="http://www.w3.org/2000/svg">
<path d="M11.5 2.5L1.914 12.086C1.009 12.991 0.5 14.219 0.5 15.5C0.5 16.781 1.009 18.009 1.914 18.914L3.086 20.086C3.991 20.991 5.219 21.5 6.5 21.5C7.781 21.5 9.009 20.991 9.914 20.086L22.439 7.561C23.118 6.882 23.5 5.96 23.5 5C23.5 4.04 23.118 3.118 22.439 2.439L21.561 1.561C20.882 0.882 19.96 0.5 19 0.5C18.04 0.5 17.118 0.882 16.439 1.561L5.207 12.793C4.754 13.246 4.5 13.86 4.5 14.5C4.5 15.14 4.754 15.754 5.207 16.207L5.793 16.793C6.246 17.246 6.86 17.5 7.5 17.5C8.14 17.5 8.754 17.246 9.207 16.793L17.5 8.5" stroke="black" stroke-linecap="round" stroke-linejoin="round"/>
</svg>
